<svg width="50" height="50" viewBox="0 0 50 50" fill="none" xmlns="http://www.w3.org/2000/svg">
<path d="M25 15V10H0V18.3333L25 21.6667L50 18.3333V15H25Z" fill="#3C5D76"/>
<path d="M25 15V21.6667L50 18.3333V15H25Z" fill="#1E2E3B"/>
<path d="M38.3333 1.66675H6.66675V45H43.3333V6.66675L38.3333 1.66675Z" fill="#E4F1FB"/>
<path d="M38.3333 1.66675H25V45H43.3333V6.66675L38.3333 1.66675Z" fill="#C9E3F7"/>
<path d="M38.3333 10H20V15H38.3333V10Z" fill="#78B9EB"/>
<path d="M16.6667 10H11.6667V15H16.6667V10Z" fill="#78B9EB"/>
<path d="M38.3333 10H25V15H38.3333V10Z" fill="#5A8BB0"/>
<path d="M38.3333 1.66675V6.66675H43.3333L38.3333 1.66675Z" fill="#78B9EB"/>
<path d="M43.3333 18.3333H0V48.3333H43.3333V18.3333Z" fill="#008F7B"/>
<path d="M50 18.3333H25V48.3333H50V18.3333Z" fill="#007565"/>
<path d="M33.3333 30H28.3333V25H21.6667V30H16.6667V36.6667H21.6667V41.6667H28.3333V36.6667H33.3333V30Z" fill="white"/>
</svg>
