<svg width="512" height="512" viewBox="0 0 512 512" fill="none" xmlns="http://www.w3.org/2000/svg">
<path d="M319.61 20.6541C332.755 53.7681 332.754 53.7691 314.15 84.1541C347.264 71.0091 347.266 71.0081 377.65 89.6111C364.505 56.4971 364.504 56.4981 383.107 26.1131C349.993 39.2591 349.994 39.2581 319.609 20.6541H319.61ZM113.024 38.0211C101.216 59.0611 101.216 59.0611 77.3 62.2381C98.34 74.0471 98.34 74.0461 101.517 97.9631C113.325 76.923 113.325 76.9231 137.241 73.7461C116.201 61.9381 116.201 61.9381 113.024 38.0211V38.0211ZM189.574 94.2051C188.622 144.793 188.624 144.793 147.583 174.385C198.17 175.335 198.171 175.335 227.763 216.375C228.713 165.787 228.713 165.787 269.753 136.195C219.165 135.245 219.165 135.245 189.573 94.2051H189.574ZM380.751 150.09C380.705 174.217 380.703 174.215 361.374 188.654C385.501 188.701 385.501 188.7 399.94 208.029C399.987 183.903 399.986 183.904 419.315 169.465C395.189 169.418 395.19 169.419 380.751 150.09V150.09ZM196.665 233.97C195.5 233.994 194.336 234.038 193.173 234.104C174.582 235.168 151.305 242.52 115.728 256.66L76.012 433.582C154.499 412.848 208.982 411.673 247.002 428.967V247.71C228.926 238.897 215.212 234.311 200.295 233.973C199.085 233.948 197.876 233.948 196.666 233.971L196.665 233.97ZM319.351 245.39C316.513 245.365 313.674 245.398 310.837 245.488C298.027 245.905 283.199 247.703 264.997 250.01V427.145C308.562 419.32 371.847 422.945 436.241 434.711L396.461 257.514C360.557 249.144 339.872 245.604 319.351 245.391V245.39ZM321.64 262.34C340.529 262.544 358.492 265.108 375.347 267.36L379.784 283.883C356.004 280.133 313.818 278.977 287.317 282.903L286.681 265.098C298.64 262.944 310.306 262.218 321.64 262.34ZM71.157 266.998L60.54 313.002H84.634L94.96 266.998H71.158H71.157ZM417.038 266.998L456.78 444.029L459.019 454.002L481.61 453.85L440.755 266.998H417.038V266.998ZM338.181 324.818C355.174 324.844 371.851 325.609 387.327 327.041L390.851 344.215C358.206 341.135 318.271 341.326 287.856 344.215L287.147 327.041C303.88 325.508 321.187 324.793 338.181 324.818ZM56.388 330.998L49.464 361.002H73.858L80.593 330.998H56.389H56.388ZM330.806 358.242C335.462 358.263 340.293 358.327 345.522 358.445L348.077 375.943C328.107 375.472 300.962 376.503 288.349 376.993L287.649 359.008C304.452 358.515 316.838 358.18 330.806 358.242V358.242ZM372.282 358.689C380.55 358.731 388.979 359.023 396.403 358.758L398.983 376.498C390.33 376.186 374.113 375.668 366.919 375.996L364.112 358.762C366.835 358.694 369.558 358.67 372.282 358.689V358.689ZM45.312 378.998L27.327 456.926L52.362 456.756L69.817 378.998H45.313H45.312ZM348.476 390.846C368.084 390.836 387.136 391.62 404.925 393.418L407.921 414.205C373.616 409.961 322.166 406.508 288.821 410.961L288.681 393.039C308.701 391.66 328.867 390.856 348.476 390.846V390.846ZM181.87 434.896C151.758 434.986 113.954 441.146 66.462 454.656L59.242 456.709L247.001 455.439V449.092C230.765 439.886 209.581 434.814 181.871 434.896H181.87ZM316.28 441.07C296.65 441.137 279.168 442.509 264.997 445.252V455.316L442.591 454.113C398.269 445.479 353.454 440.943 316.281 441.07H316.28ZM26 475V493H486V475H26Z" fill="white"/>
</svg>
