<svg width="30" height="30" viewBox="0 0 30 30" fill="none" xmlns="http://www.w3.org/2000/svg">
<path d="M8.36535 3.46143H2.01919C1.55765 3.46143 1.15381 3.86527 1.15381 4.32681V11.8268C1.15381 12.2883 1.55765 12.6922 2.01919 12.6922H8.36535C8.82689 12.6922 9.23073 12.2883 9.23073 11.8268V4.32681C9.23073 3.86527 8.82689 3.46143 8.36535 3.46143Z" fill="black"/>
<path d="M27.9808 3.46143H12.4038C11.9423 3.46143 11.5385 3.86527 11.5385 4.32681V6.05758C11.5385 6.51912 11.9423 6.92296 12.4038 6.92296H27.9808C28.4423 6.92296 28.8461 6.51912 28.8461 6.05758V4.32681C28.8461 3.86527 28.4423 3.46143 27.9808 3.46143Z" fill="black"/>
<path d="M12.4038 12.6923H22.2115C22.6731 12.6923 23.0769 12.2884 23.0769 11.8269V10.0961C23.0769 9.63456 22.6731 9.23071 22.2115 9.23071H12.4038C11.9423 9.23071 11.5385 9.63456 11.5385 10.0961V11.8269C11.5385 12.2884 11.9423 12.6923 12.4038 12.6923Z" fill="black"/>
<path d="M8.36535 17.3076H2.01919C1.55765 17.3076 1.15381 17.7115 1.15381 18.173V25.673C1.15381 26.1345 1.55765 26.5384 2.01919 26.5384H8.36535C8.82689 26.5384 9.23073 26.1345 9.23073 25.673V18.173C9.23073 17.7115 8.82689 17.3076 8.36535 17.3076Z" fill="black"/>
<path d="M27.9808 17.3076H12.4038C11.9423 17.3076 11.5385 17.7115 11.5385 18.173V19.9038C11.5385 20.3653 11.9423 20.7692 12.4038 20.7692H27.9808C28.4423 20.7692 28.8461 20.3653 28.8461 19.9038V18.173C28.8461 17.7115 28.4423 17.3076 27.9808 17.3076Z" fill="black"/>
<path d="M22.2115 23.0769H12.4038C11.9423 23.0769 11.5385 23.4808 11.5385 23.9423V25.6731C11.5385 26.1346 11.9423 26.5384 12.4038 26.5384H22.2115C22.6731 26.5384 23.0769 26.1346 23.0769 25.6731V23.9423C23.0769 23.4808 22.6731 23.0769 22.2115 23.0769Z" fill="black"/>
</svg>
