<?xml version="1.0" encoding="utf-8"?>
<!-- Generator: Adobe Illustrator 26.1.0, SVG Export Plug-In . SVG Version: 6.00 Build 0)  -->
<svg version="1.1" id="Слой_1" xmlns="http://www.w3.org/2000/svg" xmlns:xlink="http://www.w3.org/1999/xlink" x="0px" y="0px"
	 viewBox="0 0 25 25" style="enable-background:new 0 0 25 25;" xml:space="preserve">
<style type="text/css">
	.st0{clip-path:url(#SVGID_00000072274507565889854850000000092130333335680898_);}
	.st1{fill:#000425;}
</style>
<g>
	<defs>
		<rect id="SVGID_1_" width="25" height="25"/>
	</defs>
	<clipPath id="SVGID_00000149378953243735546890000010816772189022715010_">
		<use xlink:href="#SVGID_1_"  style="overflow:visible;"/>
	</clipPath>
	<g style="clip-path:url(#SVGID_00000149378953243735546890000010816772189022715010_);">
		<path class="st1" d="M21.3,21.3c4.9-4.9,4.9-12.8,0-17.7c-4.9-4.9-12.8-4.9-17.7,0s-4.9,12.8,0,17.7C8.5,26.2,16.5,26.2,21.3,21.3
			z M4.5,4.5c4.4-4.4,11.5-4.4,15.9,0c4.4,4.4,4.4,11.5,0,15.9c-4.4,4.4-11.5,4.4-15.9,0C0.1,16.1,0.2,8.9,4.5,4.5z"/>
		<path class="st1" d="M16.6,13.1c0.2,0,0.3-0.1,0.4-0.2c0.1-0.1,0.2-0.3,0.2-0.4c0-0.3-0.3-0.6-0.6-0.6H8.5c-0.3,0-0.6,0.3-0.6,0.6
			c0,0.3,0.3,0.6,0.6,0.6L16.6,13.1z"/>
	</g>
</g>
</svg>
