<svg width="25" height="25" viewBox="0 0 25 25" fill="none" xmlns="http://www.w3.org/2000/svg">
<g clip-path="url(#clip0_34_433)">
<path d="M21.3433 21.3433C26.2189 16.4678 26.2189 8.53223 21.3433 3.65667C16.4678 -1.21889 8.53223 -1.21889 3.65667 3.65667C-1.21889 8.53223 -1.21889 16.4678 3.65667 21.3433C8.53223 26.2189 16.4678 26.2189 21.3433 21.3433ZM4.53896 4.53896C8.93003 0.147899 16.07 0.147899 20.461 4.53896C24.8521 8.93003 24.8521 16.07 20.461 20.461C16.07 24.8521 8.93003 24.8521 4.53896 20.461C0.147899 16.07 0.152999 8.93003 4.53896 4.53896Z" fill="#000425"/>
<path d="M12.5 17.1817C12.6734 17.1817 12.8264 17.1103 12.9437 16.9981C13.0559 16.8859 13.1273 16.7278 13.1273 16.5544V13.1221H16.5596C16.733 13.1221 16.886 13.0507 17.0033 12.9385C17.1155 12.8263 17.1869 12.6682 17.1869 12.4948C17.1869 12.148 16.9064 11.8676 16.5647 11.8727H13.1324V8.44038C13.1324 8.09358 12.8519 7.81308 12.5102 7.81818C12.1634 7.81818 11.8829 8.09868 11.888 8.44038V11.8727H8.45576C8.10896 11.8727 7.82846 12.1531 7.83356 12.4948C7.83356 12.8416 8.11406 13.1221 8.45576 13.117H11.888V16.5493C11.8727 16.9012 12.1532 17.1817 12.5 17.1817Z" fill="#000425"/>
</g>
<defs>
<clipPath id="clip0_34_433">
<rect width="25" height="25" fill="white"/>
</clipPath>
</defs>
</svg>
