<svg width="29" height="30" viewBox="0 0 29 30" fill="none" xmlns="http://www.w3.org/2000/svg">
<path d="M5.65658 26.8182C5.00861 26.8063 4.39129 26.5402 3.93777 26.0772C3.48426 25.6142 3.2309 24.9916 3.23233 24.3435V7.17175H2.42425C1.77628 7.18368 1.15896 7.44983 0.705448 7.91279C0.251935 8.37575 -0.001429 8.99842 6.06308e-06 9.6465V27.5253C-0.001429 28.1734 0.251935 28.7961 0.705448 29.259C1.15896 29.722 1.77628 29.9881 2.42425 30.0001H20.4041C21.052 29.9881 21.6694 29.722 22.1229 29.259C22.5764 28.7961 22.8297 28.1734 22.8283 27.5253V26.8182H5.65658Z" fill="black"/>
<path d="M12.3232 4.9495H21.3131C21.4196 4.95086 21.5253 4.93088 21.624 4.89075C21.7226 4.85062 21.8122 4.79115 21.8875 4.71584C21.9629 4.64053 22.0223 4.55091 22.0625 4.45226C22.1026 4.3536 22.1226 4.24791 22.1212 4.14142V2.47475C22.1199 1.81881 21.8587 1.19013 21.3949 0.726311C20.9311 0.262495 20.3024 0.00133456 19.6465 0H13.9394C13.2834 0.00133456 12.6548 0.262495 12.1909 0.726311C11.7271 1.19013 11.466 1.81881 11.4646 2.47475V4.14142C11.481 4.35899 11.5782 4.56257 11.7371 4.71211C11.896 4.86165 12.105 4.94633 12.3232 4.9495V4.9495ZM25.8081 2.07071H25C24.9458 2.0661 24.8912 2.07339 24.8401 2.09207C24.789 2.11074 24.7426 2.14035 24.7041 2.17883C24.6656 2.21731 24.636 2.26373 24.6173 2.31484C24.5986 2.36595 24.5913 2.42053 24.596 2.47475V4.14142C24.6 5.01798 24.257 5.86054 23.642 6.48509C23.0269 7.10964 22.1896 7.46542 21.3131 7.47475H12.3232C11.4467 7.46542 10.6095 7.10964 9.99438 6.48509C9.3793 5.86054 9.03633 5.01798 9.04039 4.14142V2.47475C9.04499 2.42053 9.03771 2.36595 9.01903 2.31484C9.00035 2.26373 8.97074 2.21731 8.93226 2.17883C8.89378 2.14035 8.84737 2.11074 8.79626 2.09207C8.74514 2.07339 8.69057 2.0661 8.63635 2.07071H7.82826C7.17233 2.07204 6.54364 2.3332 6.07983 2.79702C5.61601 3.26084 5.35485 3.88952 5.35352 4.54546V22.3738C5.35485 23.0297 5.61601 23.6584 6.07983 24.1222C6.54364 24.586 7.17233 24.8472 7.82826 24.8485H25.8081C26.464 24.8472 27.0927 24.586 27.5565 24.1222C28.0203 23.6584 28.2815 23.0297 28.2828 22.3738V4.54546C28.2815 3.88952 28.0203 3.26084 27.5565 2.79702C27.0927 2.3332 26.464 2.07204 25.8081 2.07071ZM12.3232 19.899C12.3246 20.0055 12.3046 20.1112 12.2645 20.2098C12.2243 20.3085 12.1649 20.3981 12.0896 20.4734C12.0142 20.5487 11.9246 20.6082 11.826 20.6483C11.7273 20.6885 11.6216 20.7084 11.5151 20.7071H10.7071C10.6006 20.7084 10.4949 20.6885 10.3962 20.6483C10.2976 20.6082 10.2079 20.5487 10.1326 20.4734C10.0573 20.3981 9.99785 20.3085 9.95772 20.2098C9.91759 20.1112 9.89762 20.0055 9.89897 19.899V19.0909C9.89762 18.9844 9.91759 18.8787 9.95772 18.7801C9.99785 18.6814 10.0573 18.5918 10.1326 18.5165C10.2079 18.4412 10.2976 18.3817 10.3962 18.3416C10.4949 18.3015 10.6006 18.2815 10.7071 18.2828H11.5151C11.6216 18.2815 11.7273 18.3015 11.826 18.3416C11.9246 18.3817 12.0142 18.4412 12.0896 18.5165C12.1649 18.5918 12.2243 18.6814 12.2645 18.7801C12.3046 18.8787 12.3246 18.9844 12.3232 19.0909V19.899ZM12.3232 15.7576C12.3246 15.8641 12.3046 15.9698 12.2645 16.0684C12.2243 16.1671 12.1649 16.2567 12.0896 16.332C12.0142 16.4073 11.9246 16.4668 11.826 16.5069C11.7273 16.5471 11.6216 16.567 11.5151 16.5657H10.7071C10.6006 16.567 10.4949 16.5471 10.3962 16.5069C10.2976 16.4668 10.2079 16.4073 10.1326 16.332C10.0573 16.2567 9.99785 16.1671 9.95772 16.0684C9.91759 15.9698 9.89762 15.8641 9.89897 15.7576V14.9495C9.89762 14.843 9.91759 14.7373 9.95772 14.6387C9.99785 14.54 10.0573 14.4504 10.1326 14.3751C10.2079 14.2998 10.2976 14.2403 10.3962 14.2002C10.4949 14.16 10.6006 14.1401 10.7071 14.1414H11.5151C11.6216 14.1401 11.7273 14.16 11.826 14.2002C11.9246 14.2403 12.0142 14.2998 12.0896 14.3751C12.1649 14.4504 12.2243 14.54 12.2645 14.6387C12.3046 14.7373 12.3246 14.843 12.3232 14.9495V15.7576ZM12.3232 11.6162C12.3246 11.7227 12.3046 11.8284 12.2645 11.927C12.2243 12.0257 12.1649 12.1153 12.0896 12.1906C12.0142 12.2659 11.9246 12.3254 11.826 12.3655C11.7273 12.4056 11.6216 12.4256 11.5151 12.4243H10.7071C10.6006 12.4256 10.4949 12.4056 10.3962 12.3655C10.2976 12.3254 10.2079 12.2659 10.1326 12.1906C10.0573 12.1153 9.99785 12.0257 9.95772 11.927C9.91759 11.8284 9.89762 11.7227 9.89897 11.6162V10.8081C9.89762 10.7016 9.91759 10.5959 9.95772 10.4973C9.99785 10.3986 10.0573 10.309 10.1326 10.2337C10.2079 10.1584 10.2976 10.0989 10.3962 10.0588C10.4949 10.0186 10.6006 9.99865 10.7071 10H11.5151C11.6216 9.99865 11.7273 10.0186 11.826 10.0588C11.9246 10.0989 12.0142 10.1584 12.0896 10.2337C12.1649 10.309 12.2243 10.3986 12.2645 10.4973C12.3046 10.5959 12.3246 10.7016 12.3232 10.8081V11.6162ZM23.7879 19.899C23.7892 20.0055 23.7693 20.1112 23.7291 20.2098C23.689 20.3085 23.6295 20.3981 23.5542 20.4734C23.4789 20.5487 23.3893 20.6082 23.2906 20.6483C23.192 20.6885 23.0863 20.7084 22.9798 20.7071H14.798C14.6915 20.7084 14.5858 20.6885 14.4871 20.6483C14.3885 20.6082 14.2989 20.5487 14.2235 20.4734C14.1482 20.3981 14.0888 20.3085 14.0486 20.2098C14.0085 20.1112 13.9885 20.0055 13.9899 19.899V19.0909C13.9885 18.9844 14.0085 18.8787 14.0486 18.7801C14.0888 18.6814 14.1482 18.5918 14.2235 18.5165C14.2989 18.4412 14.3885 18.3817 14.4871 18.3416C14.5858 18.3015 14.6915 18.2815 14.798 18.2828H22.9798C23.0863 18.2815 23.192 18.3015 23.2906 18.3416C23.3893 18.3817 23.4789 18.4412 23.5542 18.5165C23.6295 18.5918 23.689 18.6814 23.7291 18.7801C23.7693 18.8787 23.7892 18.9844 23.7879 19.0909V19.899ZM23.7879 15.7576C23.7892 15.8641 23.7693 15.9698 23.7291 16.0684C23.689 16.1671 23.6295 16.2567 23.5542 16.332C23.4789 16.4073 23.3893 16.4668 23.2906 16.5069C23.192 16.5471 23.0863 16.567 22.9798 16.5657H14.798C14.6915 16.567 14.5858 16.5471 14.4871 16.5069C14.3885 16.4668 14.2989 16.4073 14.2235 16.332C14.1482 16.2567 14.0888 16.1671 14.0486 16.0684C14.0085 15.9698 13.9885 15.8641 13.9899 15.7576V14.9495C13.9885 14.843 14.0085 14.7373 14.0486 14.6387C14.0888 14.54 14.1482 14.4504 14.2235 14.3751C14.2989 14.2998 14.3885 14.2403 14.4871 14.2002C14.5858 14.16 14.6915 14.1401 14.798 14.1414H22.9798C23.0863 14.1401 23.192 14.16 23.2906 14.2002C23.3893 14.2403 23.4789 14.2998 23.5542 14.3751C23.6295 14.4504 23.689 14.54 23.7291 14.6387C23.7693 14.7373 23.7892 14.843 23.7879 14.9495V15.7576ZM23.7879 11.6162C23.7892 11.7227 23.7693 11.8284 23.7291 11.927C23.689 12.0257 23.6295 12.1153 23.5542 12.1906C23.4789 12.2659 23.3893 12.3254 23.2906 12.3655C23.192 12.4056 23.0863 12.4256 22.9798 12.4243H14.798C14.6915 12.4256 14.5858 12.4056 14.4871 12.3655C14.3885 12.3254 14.2989 12.2659 14.2235 12.1906C14.1482 12.1153 14.0888 12.0257 14.0486 11.927C14.0085 11.8284 13.9885 11.7227 13.9899 11.6162V10.8081C13.9885 10.7016 14.0085 10.5959 14.0486 10.4973C14.0888 10.3986 14.1482 10.309 14.2235 10.2337C14.2989 10.1584 14.3885 10.0989 14.4871 10.0588C14.5858 10.0186 14.6915 9.99865 14.798 10H22.9798C23.0863 9.99865 23.192 10.0186 23.2906 10.0588C23.3893 10.0989 23.4789 10.1584 23.5542 10.2337C23.6295 10.309 23.689 10.3986 23.7291 10.4973C23.7693 10.5959 23.7892 10.7016 23.7879 10.8081V11.6162Z" fill="black"/>
</svg>
