<svg width="27" height="30" viewBox="0 0 27 30" fill="none" xmlns="http://www.w3.org/2000/svg">
<path d="M2.68208 27.8353C2.31043 27.8353 2.00838 27.5332 2.00838 27.1621V6.42502C2.00838 6.05386 2.31043 5.75193 2.68208 5.75193H17.0914C17.463 5.75193 17.7652 6.0538 17.7652 6.42502V15.391C18.4056 15.1777 19.0772 15.0361 19.7735 14.9761V6.42502C19.7735 4.9462 18.5703 3.74355 17.0914 3.74355H5.74847V2.68147C5.74847 2.31025 6.05047 2.00838 6.42212 2.00838H20.8315C21.2031 2.00838 21.5052 2.31025 21.5052 2.68147V14.9943C22.2033 15.0719 22.8743 15.2376 23.5135 15.4695V2.68147C23.5135 1.20271 22.3104 0 20.8315 0H6.42212C4.94323 0 3.7401 1.20271 3.7401 2.68147V3.74355H2.68208C1.2032 3.74355 0 4.94626 0 6.42502V27.1621C0 28.6408 1.2032 29.8437 2.68208 29.8437H14.2398C13.6613 29.2489 13.166 28.5742 12.7726 27.8353H2.68208V27.8353Z" fill="black"/>
<path d="M6.09739 11.5695H11.893C12.4482 11.5695 12.8972 11.1198 12.8972 10.5653C12.8972 10.0108 12.4482 9.56116 11.893 9.56116H6.09739C5.54256 9.56116 5.09351 10.0108 5.09351 10.5653C5.09351 11.1198 5.5425 11.5695 6.09739 11.5695Z" fill="black"/>
<path d="M14.6809 15.0238C14.6809 14.4693 14.2319 14.0197 13.6767 14.0197H6.09739C5.54256 14.0197 5.09351 14.4693 5.09351 15.0238C5.09351 15.5784 5.5425 16.028 6.09739 16.028H13.6767C14.2319 16.028 14.6809 15.5784 14.6809 15.0238Z" fill="black"/>
<path d="M13.5013 18.4767H6.09739C5.54256 18.4767 5.09351 18.9263 5.09351 19.4808C5.09351 20.0353 5.5425 20.485 6.09739 20.485H12.3726C12.6598 19.7626 13.0423 19.09 13.5013 18.4767Z" fill="black"/>
<path d="M6.09739 22.9341C5.54256 22.9341 5.09351 23.3838 5.09351 23.9383C5.09351 24.4928 5.5425 24.9425 6.09739 24.9425H11.8401C11.7851 24.5434 11.746 24.1382 11.746 23.7239C11.746 23.4571 11.7626 23.1948 11.7863 22.9341H6.09739V22.9341Z" fill="black"/>
<path d="M20.5325 21.6494C18.8086 21.6494 17.2825 23.0777 16.6805 23.7239C17.2825 24.3698 18.8086 25.7976 20.5325 25.7976C22.2633 25.7976 23.7851 24.3702 24.3844 23.7245C23.7833 23.0788 22.2575 21.6494 20.5325 21.6494ZM20.5325 25.2302C19.7009 25.2302 19.0264 24.5557 19.0264 23.7239C19.0264 22.8915 19.7009 22.2178 20.5325 22.2178C21.364 22.2178 22.0386 22.8915 22.0386 23.7239C22.0386 24.5557 21.364 25.2302 20.5325 25.2302Z" fill="black"/>
<path d="M20.5324 17.448C17.066 17.448 14.2563 20.2576 14.2563 23.724C14.2563 27.1896 17.066 30.0001 20.5324 30.0001C23.9989 30.0001 26.8085 27.1896 26.8085 23.724C26.8085 20.2575 23.9989 17.448 20.5324 17.448ZM20.5324 26.8016C17.824 26.8016 15.7077 24.1471 15.6185 24.0343C15.4764 23.852 15.4764 23.5961 15.6185 23.4142C15.7077 23.301 17.824 20.6453 20.5324 20.6453C23.2408 20.6453 25.3571 23.3009 25.4463 23.4142C25.5885 23.5961 25.5885 23.852 25.4463 24.0343C25.3571 24.1472 23.2408 26.8016 20.5324 26.8016Z" fill="black"/>
</svg>
