<svg width="10" height="6" viewBox="0 0 10 6" fill="none" xmlns="http://www.w3.org/2000/svg">
<path d="M5.31153 5.8583L9.88116 0.766689C9.95744 0.681733 10 0.568863 10 0.451489C10 0.334116 9.95744 0.221247 9.88116 0.136291L9.876 0.130809C9.83901 0.0894813 9.7945 0.0565729 9.74516 0.0340853C9.69582 0.0115976 9.64269 9.20622e-07 9.589 9.15655e-07C9.5353 9.10688e-07 9.48217 0.0115976 9.43283 0.0340852C9.38349 0.0565729 9.33898 0.0894813 9.302 0.130809L4.99914 4.92549L0.698005 0.130808C0.661024 0.0894805 0.616509 0.056572 0.56717 0.0340844C0.517831 0.0115968 0.464698 7.16222e-08 0.411005 6.66553e-08C0.357311 6.16884e-08 0.304178 0.0115967 0.254838 0.0340844C0.205499 0.056572 0.160985 0.0894804 0.124004 0.130808L0.11884 0.13629C0.0425544 0.221246 -4.85554e-07 0.334115 -4.95252e-07 0.451489C-5.04949e-07 0.568862 0.0425543 0.681732 0.11884 0.766688L4.68847 5.8583C4.72866 5.90308 4.77699 5.93872 4.83054 5.96308C4.88409 5.98744 4.94174 6 5 6C5.05826 6 5.11591 5.98744 5.16946 5.96308C5.22301 5.93872 5.27134 5.90308 5.31153 5.8583Z" fill="black"/>
</svg>
