<svg width="42" height="42" viewBox="0 0 42 42" fill="none" xmlns="http://www.w3.org/2000/svg">
<path fill-rule="evenodd" clip-rule="evenodd" d="M21 1.75C10.3688 1.75 1.75 10.3688 1.75 21C1.75 31.6313 10.3688 40.25 21 40.25C31.6313 40.25 40.25 31.6313 40.25 21C40.25 10.3688 31.6313 1.75 21 1.75ZM27.4872 16.9872C27.806 16.6572 27.9824 16.2151 27.9784 15.7563C27.9744 15.2975 27.7904 14.8585 27.4659 14.5341C27.1415 14.2096 26.7025 14.0256 26.2437 14.0216C25.7849 14.0176 25.3428 14.194 25.0128 14.5128L21 18.5255L16.9872 14.5128C16.8258 14.3456 16.6327 14.2123 16.4192 14.1206C16.2057 14.0289 15.9761 13.9806 15.7437 13.9786C15.5113 13.9765 15.2809 14.0208 15.0658 14.1088C14.8508 14.1968 14.6554 14.3267 14.4911 14.4911C14.3267 14.6554 14.1968 14.8508 14.1088 15.0658C14.0208 15.2809 13.9765 15.5113 13.9786 15.7437C13.9806 15.9761 14.0289 16.2057 14.1206 16.4192C14.2123 16.6327 14.3456 16.8258 14.5128 16.9872L18.5255 21L14.5128 25.0128C14.3456 25.1742 14.2123 25.3673 14.1206 25.5808C14.0289 25.7943 13.9806 26.0239 13.9786 26.2563C13.9765 26.4887 14.0208 26.7191 14.1088 26.9342C14.1968 27.1492 14.3267 27.3446 14.4911 27.5089C14.6554 27.6733 14.8508 27.8032 15.0658 27.8912C15.2809 27.9792 15.5113 28.0235 15.7437 28.0214C15.9761 28.0194 16.2057 27.9711 16.4192 27.8794C16.6327 27.7877 16.8258 27.6544 16.9872 27.4872L21 23.4745L25.0128 27.4872C25.3428 27.806 25.7849 27.9824 26.2437 27.9784C26.7025 27.9744 27.1415 27.7904 27.4659 27.4659C27.7904 27.1415 27.9744 26.7025 27.9784 26.2437C27.9824 25.7849 27.806 25.3428 27.4872 25.0128L23.4745 21L27.4872 16.9872Z" fill="#2C2C2C"/>
</svg>
