<svg width="24" height="25" viewBox="0 0 24 25" fill="none" xmlns="http://www.w3.org/2000/svg">
<path d="M18 8.30664H20C20.2652 8.30664 20.5196 8.412 20.7071 8.59953C20.8946 8.78707 21 9.04142 21 9.30664V21.3066C21 21.5719 20.8946 21.8262 20.7071 22.0137C20.5196 22.2013 20.2652 22.3066 20 22.3066H4C3.73478 22.3066 3.48043 22.2013 3.29289 22.0137C3.10536 21.8262 3 21.5719 3 21.3066V9.30664C3 9.04142 3.10536 8.78707 3.29289 8.59953C3.48043 8.412 3.73478 8.30664 4 8.30664H6V7.30664C6 5.71534 6.63214 4.18922 7.75736 3.064C8.88258 1.93878 10.4087 1.30664 12 1.30664C13.5913 1.30664 15.1174 1.93878 16.2426 3.064C17.3679 4.18922 18 5.71534 18 7.30664V8.30664ZM16 8.30664V7.30664C16 6.24577 15.5786 5.22836 14.8284 4.47821C14.0783 3.72807 13.0609 3.30664 12 3.30664C10.9391 3.30664 9.92172 3.72807 9.17157 4.47821C8.42143 5.22836 8 6.24577 8 7.30664V8.30664H16ZM11 14.3066V16.3066H13V14.3066H11ZM7 14.3066V16.3066H9V14.3066H7ZM15 14.3066V16.3066H17V14.3066H15Z" fill="black"/>
</svg>
