<?xml version="1.0" encoding="utf-8"?><svg xml:space="preserve" viewBox="0 0 100 100" y="0px" x="0px" xmlns:xlink="http://www.w3.org/1999/xlink" xmlns="http://www.w3.org/2000/svg" id="圖層_1" version="1.1" width="200px" height="200px" style="width:100%;height:100%;background-size:initial;background-repeat-y:initial;background-repeat-x:initial;background-position-y:initial;background-position-x:initial;background-origin:initial;background-image:initial;background-color:rgb(255, 255, 255);background-clip:initial;background-attachment:initial;animation-play-state:paused" ><g class="ldl-scale" style="transform-origin:50% 50%;transform:rotate(0deg) scale(0.8, 0.8);animation-play-state:paused" ><ellipse ry="21.23" rx="14.61" cy="66.47" cx="50.08" stroke-miterlimit="10" stroke-linejoin="round" stroke-linecap="round" stroke-width="3" stroke="#000000" fill="#323334" style="fill:rgb(50, 51, 52);animation-play-state:paused" ></ellipse>
<g style="animation-play-state:paused" ><ellipse ry="9.97" rx="1.87" cy="27.47" cx="50.08" stroke-miterlimit="10" stroke-linejoin="round" stroke-linecap="round" stroke-width="3" stroke="#000000" fill="#323334" style="fill:rgb(50, 51, 52);animation-play-state:paused" ></ellipse>
<line y2="12.3" x2="56.45" y1="21.56" x1="51.96" stroke-miterlimit="10" stroke-linejoin="round" stroke-linecap="round" stroke-width="3" stroke="#000000" fill="#96343D" style="fill:rgb(150, 52, 61);animation-play-state:paused" ></line>
<line y2="12.3" x2="43.71" y1="21.56" x1="48.21" stroke-miterlimit="10" stroke-linejoin="round" stroke-linecap="round" stroke-width="3" stroke="#000000" fill="#96343D" style="fill:rgb(150, 52, 61);animation-play-state:paused" ></line></g>
<ellipse ry="7.12" rx="8.23" cy="26.6" cx="42.59" stroke-miterlimit="10" stroke-linejoin="round" stroke-linecap="round" stroke-width="3" stroke="#000000" fill="#96343D" transform="matrix(0.0537 -0.9986 0.9986 0.0537 13.7405 67.7011)" style="fill:rgb(150, 52, 61);animation-play-state:paused" ></ellipse>
<ellipse ry="8.23" rx="7.12" cy="26.6" cx="57.58" stroke-miterlimit="10" stroke-linejoin="round" stroke-linecap="round" stroke-width="3" stroke="#000000" fill="#96343D" style="fill:rgb(150, 52, 61);animation-play-state:paused" ></ellipse>
<polyline points="57.78,37.43 74.44,27.9 72.19,18.37 77.44,14.9" stroke-miterlimit="10" stroke-linejoin="round" stroke-linecap="round" stroke-width="3" stroke="#000000" fill="none" style="animation-play-state:paused" ></polyline>
<polyline points="58.7,42.63 75.94,39.17 79.69,46.97 84.18,46.97" stroke-miterlimit="10" stroke-linejoin="round" stroke-linecap="round" stroke-width="3" stroke="#000000" fill="none" style="animation-play-state:paused" ></polyline>
<polyline points="61.07,52.46 80.44,55.63 84.18,73.83 87.93,77.3" stroke-miterlimit="10" stroke-linejoin="round" stroke-linecap="round" stroke-width="3" stroke="#000000" fill="none" style="animation-play-state:paused" ></polyline>
<polyline points="42.22,37.43 25.56,27.9 27.81,18.37 22.56,14.9" stroke-miterlimit="10" stroke-linejoin="round" stroke-linecap="round" stroke-width="3" stroke="#000000" fill="none" style="animation-play-state:paused" ></polyline>
<polyline points="41.3,42.63 24.06,39.17 20.31,46.97 15.82,46.97" stroke-miterlimit="10" stroke-linejoin="round" stroke-linecap="round" stroke-width="3" stroke="#000000" fill="none" style="animation-play-state:paused" ></polyline>
<polyline points="38.93,52.46 19.56,55.63 15.82,73.83 12.07,77.3" stroke-miterlimit="10" stroke-linejoin="round" stroke-linecap="round" stroke-width="3" stroke="#000000" fill="none" style="animation-play-state:paused" ></polyline>
<path d="M73.32,57.53c3.02,7.44,8.54,24.6,3.89,28.46c-4.24,3.52-16.65-4.26-22.01-15.96c-6.18-13.47-2.97-32.08,2.3-33.65 C62.84,34.79,70.54,50.68,73.32,57.53z" stroke-miterlimit="10" stroke-linejoin="round" stroke-linecap="round" stroke-width="3" stroke="#000000" fill="#F1F1F3" style="fill:rgb(241, 241, 243);animation-play-state:paused" ></path>
<path d="M26.77,57.53c-3.02,7.44-8.54,24.6-3.89,28.46c4.24,3.52,16.65-4.26,22.01-15.96c6.18-13.47,2.97-32.08-2.3-33.65 C37.25,34.79,29.55,50.68,26.77,57.53z" stroke-miterlimit="10" stroke-linejoin="round" stroke-linecap="round" stroke-width="3" stroke="#000000" fill="#F1F1F3" style="fill:rgb(241, 241, 243);animation-play-state:paused" ></path>
<ellipse ry="12.57" rx="8.62" cy="43.07" cx="50.08" stroke-miterlimit="10" stroke-linejoin="round" stroke-linecap="round" stroke-width="3" stroke="#000000" fill="#323334" style="fill:rgb(50, 51, 52);animation-play-state:paused" ></ellipse>
<metadata xmlns:d="https://loading.io/stock/" style="animation-play-state:paused" ><d:name style="animation-play-state:paused" >insect</d:name>


<d:tags style="animation-play-state:paused" >insect,bug,animal,biology,fly,muscomorpha</d:tags>


<d:license style="animation-play-state:paused" >by</d:license>


<d:slug style="animation-play-state:paused" >uh9yto</d:slug></metadata></g><!-- generated by https://loading.io/ --></svg>