<?xml version="1.0"?><svg version="1.1" id="圖層_1" xmlns="http://www.w3.org/2000/svg" x="0" y="0" viewBox="0 0 100 100" xml:space="preserve"><path d="M50 14c-19.851 0-36 16.149-36 36 0 10.681 4.68 20.285 12.092 26.884 4.059-7.124 8.297-12.114 10.962-13.595-4.455-3.712-7.293-9.299-7.293-15.551C29.762 36.561 38.823 27.5 50 27.5s20.238 9.061 20.238 20.238c0 6.252-2.838 11.839-7.293 15.551 3.512 2.308 7.499 7.146 10.962 13.595C81.32 70.285 86 60.681 86 50c0-19.851-16.149-36-36-36z" fill="#fff"/><path d="M50 8C26.841 8 8 26.841 8 50s18.841 42 42 42 42-18.841 42-42S73.159 8 50 8zm23.908 68.884c.002.006-5.786-10.627-10.962-13.595 4.455-3.712 7.293-9.299 7.293-15.551C70.238 36.561 61.177 27.5 50 27.5s-20.238 9.061-20.238 20.238c0 6.252 2.838 11.839 7.293 15.551-5.176 2.968-10.964 13.6-10.962 13.595C18.68 70.285 14 60.681 14 50c0-19.851 16.149-36 36-36s36 16.149 36 36c0 10.681-4.68 20.285-12.092 26.884z" fill="#333"/><metadata xmlns:d="https://loading.io/stock/">
<d:name>user</d:name>
<d:tags>user,avatar,account,profile,customer,guest</d:tags>
<d:license>by</d:license>
<d:slug>v03iy3</d:slug>
</metadata></svg>