<svg width="32" height="36" viewBox="0 0 32 36" fill="none" xmlns="http://www.w3.org/2000/svg">
<path d="M10.2859 1.04638C10.4102 1.17031 10.5087 1.31753 10.576 1.47962C10.6432 1.6417 10.6779 1.81546 10.6779 1.99095C10.6779 2.16643 10.6432 2.3402 10.576 2.50228C10.5087 2.66436 10.4102 2.81159 10.2859 2.93552L4.55713 8.66164H10.7902C14.7072 8.66164 18.5416 8.66164 22.0663 9.71827C25.7085 10.8123 28.9638 13.0109 31.7975 17.2615C31.9813 17.5559 32.0432 17.9103 31.97 18.2496C31.8967 18.5888 31.6942 18.8862 31.4053 19.0785C31.1164 19.2709 30.7639 19.3431 30.4227 19.2798C30.0814 19.2166 29.7783 19.0228 29.5775 18.7397C27.0747 14.9854 24.3264 13.1817 21.2952 12.2745C18.1867 11.3406 14.7233 11.3299 10.6755 11.3299H4.55713L10.2832 17.056C10.4073 17.1799 10.5057 17.327 10.5729 17.4889C10.6401 17.6508 10.6748 17.8244 10.6749 17.9997C10.675 18.175 10.6406 18.3486 10.5736 18.5106C10.5067 18.6726 10.4084 18.8198 10.2846 18.9438C10.1607 19.0679 10.0136 19.1663 9.85172 19.2335C9.68981 19.3007 9.51625 19.3354 9.34095 19.3355C9.16566 19.3356 8.99205 19.3012 8.83005 19.2342C8.66805 19.1673 8.52082 19.069 8.39678 18.9452L0.391953 10.9403C0.26771 10.8164 0.169136 10.6692 0.101879 10.5071C0.0346203 10.345 0 10.1713 0 9.99577C0 9.82029 0.0346203 9.64653 0.101879 9.48444C0.169136 9.32236 0.26771 9.17513 0.391953 9.0512L8.39678 1.04638C8.64697 0.796267 8.98625 0.655762 9.34001 0.655762C9.69378 0.655762 10.0331 0.796267 10.2832 1.04638H10.2859ZM16.012 35.3444C14.5967 35.3444 13.2393 34.7821 12.2385 33.7813C11.2377 32.7805 10.6755 31.4232 10.6755 30.0078C10.6755 28.5925 11.2377 27.2351 12.2385 26.2343C13.2393 25.2335 14.5967 24.6713 16.012 24.6713C17.4274 24.6713 18.7847 25.2335 19.7855 26.2343C20.7863 27.2351 21.3486 28.5925 21.3486 30.0078C21.3486 31.4232 20.7863 32.7805 19.7855 33.7813C18.7847 34.7821 17.4274 35.3444 16.012 35.3444Z" fill="black"/>
</svg>
