<svg width="51" height="51" viewBox="0 0 51 51" fill="none" xmlns="http://www.w3.org/2000/svg">
<path d="M14.809 14.809C14.9571 14.6606 15.133 14.5429 15.3266 14.4625C15.5202 14.3822 15.7278 14.3408 15.9374 14.3408C16.1471 14.3408 16.3546 14.3822 16.5483 14.4625C16.7419 14.5429 16.9177 14.6606 17.0658 14.809L25.4999 23.2464L33.934 14.809C34.0822 14.6609 34.2581 14.5433 34.4517 14.4631C34.6454 14.3829 34.8529 14.3417 35.0624 14.3417C35.272 14.3417 35.4795 14.3829 35.6731 14.4631C35.8667 14.5433 36.0426 14.6609 36.1908 14.809C36.339 14.9572 36.4565 15.1331 36.5367 15.3267C36.6169 15.5204 36.6582 15.7279 36.6582 15.9374C36.6582 16.147 36.6169 16.3545 36.5367 16.5481C36.4565 16.7417 36.339 16.9176 36.1908 17.0658L27.7535 25.4999L36.1908 33.934C36.339 34.0822 36.4565 34.2581 36.5367 34.4517C36.6169 34.6454 36.6582 34.8529 36.6582 35.0624C36.6582 35.272 36.6169 35.4795 36.5367 35.6731C36.4565 35.8667 36.339 36.0426 36.1908 36.1908C36.0426 36.339 35.8667 36.4565 35.6731 36.5367C35.4795 36.6169 35.272 36.6582 35.0624 36.6582C34.8529 36.6582 34.6454 36.6169 34.4517 36.5367C34.2581 36.4565 34.0822 36.339 33.934 36.1908L25.4999 27.7535L17.0658 36.1908C16.9176 36.339 16.7417 36.4565 16.5481 36.5367C16.3545 36.6169 16.147 36.6582 15.9374 36.6582C15.7279 36.6582 15.5204 36.6169 15.3267 36.5367C15.1331 36.4565 14.9572 36.339 14.809 36.1908C14.6609 36.0426 14.5433 35.8667 14.4631 35.6731C14.3829 35.4795 14.3417 35.272 14.3417 35.0624C14.3417 34.8529 14.3829 34.6454 14.4631 34.4517C14.5433 34.2581 14.6609 34.0822 14.809 33.934L23.2464 25.4999L14.809 17.0658C14.6606 16.9177 14.5429 16.7419 14.4625 16.5483C14.3822 16.3546 14.3408 16.1471 14.3408 15.9374C14.3408 15.7278 14.3822 15.5202 14.4625 15.3266C14.5429 15.133 14.6606 14.9571 14.809 14.809Z" fill="black"/>
</svg>
